<svg width="29" height="34" viewBox="0 0 29 34" fill="none" xmlns="http://www.w3.org/2000/svg">
<path d="M21.2616 0.0170149C21.1893 -0.0637351 18.5862 0.04889 16.321 2.50752C14.0557 4.96402 14.4042 7.78177 14.4552 7.85402C14.5062 7.92627 17.6852 8.03889 19.7146 5.18077C21.744 2.32264 21.3338 0.0998899 21.2616 0.0170149ZM28.3038 24.9496C28.2018 24.7456 23.3632 22.3274 23.8137 17.6779C24.2642 13.0263 27.3731 11.7513 27.422 11.6131C27.4708 11.475 26.1533 9.93439 24.7572 9.15452C23.7321 8.60468 22.5976 8.28966 21.4358 8.23227C21.2063 8.22589 20.4095 8.03039 18.7711 8.47877C17.6916 8.77414 15.2585 9.73039 14.5891 9.76864C13.9176 9.80689 11.9201 8.65939 9.77172 8.35552C8.39684 8.08989 6.93909 8.63389 5.89572 9.05252C4.85447 9.46902 2.87397 10.6548 1.48847 13.8061C0.102967 16.9554 0.827592 21.9449 1.34609 23.4961C1.86459 25.0453 2.67422 27.5846 4.05122 29.4376C5.27522 31.5286 6.89872 32.98 7.57659 33.473C8.25447 33.966 10.167 34.2933 11.493 33.6154C12.5597 32.9609 14.485 32.5848 15.2457 32.6124C16.0043 32.64 17.5003 32.9396 19.0325 33.7578C20.2458 34.1764 21.3933 34.0021 22.543 33.5346C23.6926 33.065 25.3565 31.2843 27.2987 27.6739C28.0361 25.9951 28.3718 25.0878 28.3038 24.9496Z" fill="white"/>
<path d="M21.2616 0.0170149C21.1893 -0.0637351 18.5862 0.04889 16.321 2.50752C14.0557 4.96402 14.4042 7.78177 14.4552 7.85402C14.5062 7.92627 17.6852 8.03889 19.7146 5.18077C21.744 2.32264 21.3338 0.0998899 21.2616 0.0170149ZM28.3038 24.9496C28.2018 24.7456 23.3632 22.3274 23.8137 17.6779C24.2642 13.0263 27.3731 11.7513 27.422 11.6131C27.4708 11.475 26.1533 9.93439 24.7572 9.15452C23.7321 8.60468 22.5976 8.28966 21.4358 8.23227C21.2063 8.22589 20.4095 8.03039 18.7711 8.47877C17.6916 8.77414 15.2585 9.73039 14.5891 9.76864C13.9176 9.80689 11.9201 8.65939 9.77172 8.35552C8.39684 8.08989 6.93909 8.63389 5.89572 9.05252C4.85447 9.46902 2.87397 10.6548 1.48847 13.8061C0.102967 16.9554 0.827592 21.9449 1.34609 23.4961C1.86459 25.0453 2.67422 27.5846 4.05122 29.4376C5.27522 31.5286 6.89872 32.98 7.57659 33.473C8.25447 33.966 10.167 34.2933 11.493 33.6154C12.5597 32.9609 14.485 32.5848 15.2457 32.6124C16.0043 32.64 17.5003 32.9396 19.0325 33.7578C20.2458 34.1764 21.3933 34.0021 22.543 33.5346C23.6926 33.065 25.3565 31.2843 27.2987 27.6739C28.0361 25.9951 28.3718 25.0878 28.3038 24.9496Z" fill="white"/>
</svg>
