<svg width="29" height="29" viewBox="0 0 29 29" fill="none" xmlns="http://www.w3.org/2000/svg">
<path d="M28.0578 11.3921H26.9167V11.3333H14.1667V17H22.173C21.0049 20.2987 17.8663 22.6667 14.1667 22.6667C9.47254 22.6667 5.66667 18.8608 5.66667 14.1667C5.66667 9.47254 9.47254 5.66667 14.1667 5.66667C16.3335 5.66667 18.3047 6.48408 19.8057 7.81929L23.8127 3.81225C21.2826 1.45421 17.8982 0 14.1667 0C6.34312 0 0 6.34312 0 14.1667C0 21.9902 6.34312 28.3333 14.1667 28.3333C21.9902 28.3333 28.3333 21.9902 28.3333 14.1667C28.3333 13.2168 28.2356 12.2896 28.0578 11.3921Z" fill="#FFC107"/>
<path d="M1.6333 7.57279L6.28776 10.9863C7.54717 7.86817 10.5973 5.66667 14.1665 5.66667C16.3333 5.66667 18.3046 6.48408 19.8056 7.81929L23.8126 3.81225C21.2825 1.45421 17.898 0 14.1665 0C8.72513 0 4.00622 3.07204 1.6333 7.57279Z" fill="#FF3D00"/>
<path d="M14.1666 28.3334C17.8258 28.3334 21.1507 26.933 23.6646 24.6557L19.28 20.9455C17.8099 22.0635 16.0135 22.6682 14.1666 22.6667C10.4818 22.6667 7.3531 20.3172 6.17444 17.0383L1.55469 20.5977C3.89927 25.1856 8.66069 28.3334 14.1666 28.3334Z" fill="#4CAF50"/>
<path d="M28.0576 11.3923H26.9165V11.3335H14.1665V17.0002H22.1728C21.6141 18.5701 20.6076 19.942 19.2778 20.9463L19.28 20.9449L23.6645 24.6551C23.3543 24.937 28.3332 21.2502 28.3332 14.1668C28.3332 13.217 28.2354 12.2897 28.0576 11.3923Z" fill="#4D66FF"/>
</svg>
