<?xml version="1.0" encoding="UTF-8"?>
<!DOCTYPE svg PUBLIC "-//W3C//DTD SVG 1.1//EN" "http://www.w3.org/Graphics/SVG/1.1/DTD/svg11.dtd">
<svg xmlns="http://www.w3.org/2000/svg" version="1.1" width="401px" height="240px" style="shape-rendering:geometricPrecision; text-rendering:geometricPrecision; image-rendering:optimizeQuality; fill-rule:evenodd; clip-rule:evenodd" xmlns:xlink="http://www.w3.org/1999/xlink">
<g><path style="opacity:1" fill="#fdfdfd" d="M -0.5,-0.5 C 133.167,-0.5 266.833,-0.5 400.5,-0.5C 400.5,79.5 400.5,159.5 400.5,239.5C 266.833,239.5 133.167,239.5 -0.5,239.5C -0.5,159.5 -0.5,79.5 -0.5,-0.5 Z"/></g>
<g><path style="opacity:1" fill="#76aecd" d="M 286.5,62.5 C 293.321,61.3454 300.321,61.1787 307.5,62C 308.416,62.3742 309.25,62.8742 310,63.5C 310.823,71.6775 310.656,79.6775 309.5,87.5C 309.666,80.825 309.5,74.1583 309,67.5C 308.5,66.5 308,65.5 307.5,64.5C 300.593,62.9173 293.593,62.2507 286.5,62.5 Z"/></g>
<g><path style="opacity:1" fill="#242526" d="M 141.5,30.5 C 173.331,29.3359 205.331,29.1693 237.5,30C 247.363,40.1969 257.529,50.0302 268,59.5C 268.667,69.1667 268.667,78.8333 268,88.5C 266,89.8333 264,89.8333 262,88.5C 261.667,79.1667 261.333,69.8333 261,60.5C 258.975,57.5618 256.142,55.7284 252.5,55C 246.412,49.2495 240.745,43.2495 235.5,37C 226.84,36.5002 218.173,36.3336 209.5,36.5C 209.918,35.7784 210.584,35.2784 211.5,35C 190.5,34.6667 169.5,34.3333 148.5,34C 147.359,33.2588 147.359,32.4255 148.5,31.5C 146.257,30.5258 143.924,30.1924 141.5,30.5 Z"/></g>
<g><path style="opacity:1" fill="#121316" d="M 232.5,61.5 C 234.054,62.9142 235.388,64.5808 236.5,66.5C 237.833,65.1667 239.167,63.8333 240.5,62.5C 241.833,65.8333 241.833,69.1667 240.5,72.5C 239.808,71.9747 239.308,71.3081 239,70.5C 237.333,73.1667 235.667,73.1667 234,70.5C 233.692,71.3081 233.192,71.9747 232.5,72.5C 231.242,68.7897 231.242,65.123 232.5,61.5 Z"/></g>
<g><path style="opacity:1" fill="#191a1d" d="M 227.5,61.5 C 228.748,62.3339 229.415,63.6672 229.5,65.5C 229.792,69.2549 228.292,71.9216 225,73.5C 222.072,72.3908 220.905,70.2241 221.5,67C 221.833,65.5 222.167,64 222.5,62.5C 223.314,64.7662 223.814,67.0995 224,69.5C 224.414,69.9574 224.914,70.2907 225.5,70.5C 226.249,67.4726 226.916,64.4726 227.5,61.5 Z"/></g>
<g><path style="opacity:1" fill="#1f1f21" d="M 195.5,62.5 C 198.779,62.3051 200.779,63.8051 201.5,67C 201.022,69.2256 200.355,71.3923 199.5,73.5C 198.522,73.0233 197.689,72.3567 197,71.5C 196.29,72.9733 195.124,73.6399 193.5,73.5C 193.01,69.5128 193.676,65.8462 195.5,62.5 Z"/></g>
<g><path style="opacity:1" fill="#a5a6aa" d="M 196.5,65.5 C 198.337,65.6395 198.67,66.3061 197.5,67.5C 196.702,67.0431 196.369,66.3764 196.5,65.5 Z"/></g>
<g><path style="opacity:1" fill="#161718" d="M 250.5,72.5 C 248.5,72.5 246.5,72.5 244.5,72.5C 244.5,69.5 244.5,66.5 244.5,63.5C 246.265,62.5386 248.265,62.2053 250.5,62.5C 250.5,63.5 250.5,64.5 250.5,65.5C 247.203,65.3287 246.869,65.9954 249.5,67.5C 248.833,68.1667 248.167,68.8333 247.5,69.5C 248.77,70.2876 249.77,71.2876 250.5,72.5 Z"/></g>
<g><path style="opacity:1" fill="#1a1a1c" d="M 204.5,62.5 C 210.697,62.3251 211.363,63.3251 206.5,65.5C 210.5,66.8333 210.5,68.1667 206.5,69.5C 207.325,70.3857 208.325,70.719 209.5,70.5C 209.5,71.5 209.5,72.5 209.5,73.5C 207.533,73.7394 205.699,73.4061 204,72.5C 203.253,69.0764 203.42,65.7431 204.5,62.5 Z"/></g>
<g><path style="opacity:1" fill="#515254" d="M 244.5,63.5 C 244.5,66.5 244.5,69.5 244.5,72.5C 246.5,72.5 248.5,72.5 250.5,72.5C 248.393,73.4682 246.059,73.8016 243.5,73.5C 243.187,69.9581 243.521,66.6248 244.5,63.5 Z"/></g>
<g><path style="opacity:1" fill="#26262a" d="M 214.5,62.5 C 218.838,62.6219 219.172,62.9553 215.5,63.5C 215.167,66.5 216.5,67.8333 219.5,67.5C 219.458,70.5852 218.125,72.9186 215.5,74.5C 213.244,73.5791 212.244,71.9124 212.5,69.5C 218.853,69.5474 219.02,68.8808 213,67.5C 212.36,65.4567 212.86,63.7901 214.5,62.5 Z"/></g>
<g><path style="opacity:1" fill="#4499cd" d="M 286.5,62.5 C 293.593,62.2507 300.593,62.9173 307.5,64.5C 308,65.5 308.5,66.5 309,67.5C 309.5,74.1583 309.666,80.825 309.5,87.5C 309.389,88.1174 309.056,88.6174 308.5,89C 300.833,89.6667 293.167,89.6667 285.5,89C 285,88.5 284.5,88 284,87.5C 283.333,80.1667 283.333,72.8333 284,65.5C 284.377,64.0577 285.21,63.0577 286.5,62.5 Z"/></g>
<g><path style="opacity:1" fill="#d8e6f4" d="M 289.5,67.5 C 291.167,67.5 292.833,67.5 294.5,67.5C 294.5,68.8333 294.5,70.1667 294.5,71.5C 291.05,72.2436 289.384,70.9103 289.5,67.5 Z"/></g>
<g><path style="opacity:1" fill="#e5eff0" d="M 306.5,84.5 C 305.167,84.5 303.833,84.5 302.5,84.5C 302.5,81.8333 302.5,79.1667 302.5,76.5C 301.5,76.5 300.5,76.5 299.5,76.5C 299.5,79.1667 299.5,81.8333 299.5,84.5C 298.167,84.5 296.833,84.5 295.5,84.5C 295.5,80.8333 295.5,77.1667 295.5,73.5C 298.309,73.5183 301.309,73.3517 304.5,73C 305,73.5 305.5,74 306,74.5C 306.498,77.8168 306.665,81.1501 306.5,84.5 Z"/></g>
<g><path style="opacity:1" fill="#e6f4f4" d="M 293.5,73.5 C 293.5,77.1667 293.5,80.8333 293.5,84.5C 292.167,84.5 290.833,84.5 289.5,84.5C 288.362,81.6965 288.195,78.6965 289,75.5C 290.049,73.8934 291.549,73.2267 293.5,73.5 Z"/></g>
<g><path style="opacity:1" fill="#4183a1" d="M 293.5,73.5 C 294.167,73.5 294.833,73.5 295.5,73.5C 295.5,77.1667 295.5,80.8333 295.5,84.5C 296.833,84.5 298.167,84.5 299.5,84.5C 299.5,81.8333 299.5,79.1667 299.5,76.5C 300.5,76.5 301.5,76.5 302.5,76.5C 302.5,79.1667 302.5,81.8333 302.5,84.5C 303.833,84.5 305.167,84.5 306.5,84.5C 300.833,85.8333 295.167,85.8333 289.5,84.5C 290.833,84.5 292.167,84.5 293.5,84.5C 293.5,80.8333 293.5,77.1667 293.5,73.5 Z"/></g>
<g><path style="opacity:1" fill="#1f2123" d="M 195.5,83.5 C 213.503,83.3334 231.503,83.5001 249.5,84C 251.394,85.0793 251.727,86.4126 250.5,88C 232.167,88.6667 213.833,88.6667 195.5,88C 194.272,86.5098 194.272,85.0098 195.5,83.5 Z"/></g>
<g><path style="opacity:1" fill="#222526" d="M 146.5,49.5 C 158.171,49.3335 169.838,49.5001 181.5,50C 182.025,50.6924 182.692,51.1924 183.5,51.5C 184.666,65.8217 184.833,80.1551 184,94.5C 183.5,95 183,95.5 182.5,96C 170.167,96.6667 157.833,96.6667 145.5,96C 145,95.5 144.5,95 144,94.5C 142.371,81.2615 142.038,67.9281 143,54.5C 144.176,52.8043 145.343,51.1376 146.5,49.5 Z"/></g>
<g><path style="opacity:1" fill="#53575a" d="M 180.5,67.5 C 181.487,72.3054 181.821,77.3054 181.5,82.5C 179.901,82.7678 178.568,82.4345 177.5,81.5C 178.5,81.5 179.5,81.5 180.5,81.5C 180.5,76.8333 180.5,72.1667 180.5,67.5 Z"/></g>
<g><path style="opacity:1" fill="#f4f4f5" d="M 180.5,67.5 C 180.5,72.1667 180.5,76.8333 180.5,81.5C 179.5,81.5 178.5,81.5 177.5,81.5C 175.4,81.5228 173.567,80.8561 172,79.5C 171.5,79.8333 171,80.1667 170.5,80.5C 167.452,93.4293 165.619,93.4293 165,80.5C 164.586,80.0426 164.086,79.7093 163.5,79.5C 161.478,94.1215 159.478,94.1215 157.5,79.5C 153.734,79.7153 150.4,81.0487 147.5,83.5C 146.665,74.1831 146.665,64.8498 147.5,55.5C 158.211,55.8562 168.878,56.0229 179.5,56C 180.46,59.73 180.793,63.5633 180.5,67.5 Z"/></g>
<g><path style="opacity:1" fill="#1f2022" d="M 160.5,58.5 C 165.478,59.8199 170.145,61.9865 174.5,65C 172.147,68.3487 169.48,71.3487 166.5,74C 164.101,74.711 161.768,74.5443 159.5,73.5C 157.252,70.672 155.252,67.672 153.5,64.5C 156.091,62.7188 158.425,60.7188 160.5,58.5 Z"/></g>
<g><path style="opacity:1" fill="#78d3f3" d="M 289.5,121.5 C 289.565,121.938 289.399,122.272 289,122.5C 288.292,121.619 287.458,120.953 286.5,120.5C 277.322,110.68 265.989,107.18 252.5,110C 247.25,111.795 242.25,113.962 237.5,116.5C 238.973,114.605 240.64,112.939 242.5,111.5C 256.264,105.584 269.597,106.418 282.5,114C 285.039,116.37 287.372,118.87 289.5,121.5 Z"/></g>
<g><path style="opacity:1" fill="#2a2c2d" d="M 144.5,110.5 C 167.169,110.333 189.836,110.5 212.5,111C 213.885,113.585 213.218,115.585 210.5,117C 189.167,117.667 167.833,117.667 146.5,117C 143.609,115.41 142.942,113.244 144.5,110.5 Z"/></g>
<g><path style="opacity:1" fill="#22b5fa" d="M 286.5,120.5 C 283.994,119.25 281.327,118.584 278.5,118.5C 278.539,120.359 277.706,121.692 276,122.5C 273.959,121.577 271.792,121.244 269.5,121.5C 269.55,123.59 268.55,124.923 266.5,125.5C 263.917,122.529 260.917,121.862 257.5,123.5C 257.649,122.448 257.483,121.448 257,120.5C 256.29,121.973 255.124,122.64 253.5,122.5C 253.219,116.936 251.886,116.436 249.5,121C 250.423,123.041 250.756,125.208 250.5,127.5C 252.167,127.5 253.833,127.5 255.5,127.5C 255.5,128.5 255.5,129.5 255.5,130.5C 252.654,130.03 250.321,130.863 248.5,133C 250.134,133.494 251.801,133.66 253.5,133.5C 252.952,136.084 251.285,137.084 248.5,136.5C 248.167,136.5 247.833,136.5 247.5,136.5C 244.713,135.523 241.713,135.19 238.5,135.5C 239.952,134.698 241.618,134.198 243.5,134C 244.252,133.329 244.586,132.496 244.5,131.5C 246.224,131.539 246.557,131.206 245.5,130.5C 249.489,127.509 249.489,124.342 245.5,121C 241.9,119.927 238.9,120.76 236.5,123.5C 235.596,124.209 235.263,125.209 235.5,126.5C 234.837,128.042 234.17,129.709 233.5,131.5C 232.226,129.682 230.726,128.015 229,126.5C 228.667,127.5 228.333,128.5 228,129.5C 227.536,128.906 227.369,128.239 227.5,127.5C 229.442,122.559 232.775,118.892 237.5,116.5C 242.25,113.962 247.25,111.795 252.5,110C 265.989,107.18 277.322,110.68 286.5,120.5 Z"/></g>
<g><path style="opacity:1" fill="#101d2d" d="M 277.5,108.5 C 287.056,112.716 293.389,119.716 296.5,129.5C 294.167,126.833 291.833,124.167 289.5,121.5C 287.372,118.87 285.039,116.37 282.5,114C 269.597,106.418 256.264,105.584 242.5,111.5C 243.236,110.21 244.569,108.71 246.5,107C 257.059,104.519 267.392,105.019 277.5,108.5 Z"/></g>
<g><path style="opacity:1" fill="#f0f4f0" d="M 245.5,130.5 C 239.856,131.519 236.856,129.186 236.5,123.5C 238.9,120.76 241.9,119.927 245.5,121C 249.489,124.342 249.489,127.509 245.5,130.5 Z"/></g>
<g><path style="opacity:1" fill="#18abf7" d="M 286.5,120.5 C 288.1,123.27 290.266,125.603 293,127.5C 293.195,128.819 293.028,130.153 292.5,131.5C 292.736,134.226 291.903,136.559 290,138.5C 289.686,136.131 288.852,133.964 287.5,132C 287.905,131.055 288.572,130.388 289.5,130C 286.691,129.688 284.024,130.188 281.5,131.5C 281.5,132.5 281.5,133.5 281.5,134.5C 280.5,134.5 279.5,134.5 278.5,134.5C 274.453,134.305 270.453,134.638 266.5,135.5C 263.927,134.297 261.427,132.964 259,131.5C 257.403,132.885 255.57,133.551 253.5,133.5C 251.801,133.66 250.134,133.494 248.5,133C 250.321,130.863 252.654,130.03 255.5,130.5C 255.5,129.5 255.5,128.5 255.5,127.5C 253.833,127.5 252.167,127.5 250.5,127.5C 250.756,125.208 250.423,123.041 249.5,121C 251.886,116.436 253.219,116.936 253.5,122.5C 255.124,122.64 256.29,121.973 257,120.5C 257.483,121.448 257.649,122.448 257.5,123.5C 260.917,121.862 263.917,122.529 266.5,125.5C 268.55,124.923 269.55,123.59 269.5,121.5C 271.792,121.244 273.959,121.577 276,122.5C 277.706,121.692 278.539,120.359 278.5,118.5C 281.327,118.584 283.994,119.25 286.5,120.5 Z"/></g>
<g><path style="opacity:1" fill="#282a2c" d="M 193.5,124.5 C 197.637,124.146 201.637,124.646 205.5,126C 206.86,127.938 206.527,129.604 204.5,131C 184.833,131.667 165.167,131.667 145.5,131C 143.473,129.604 143.14,127.938 144.5,126C 161.005,125.831 177.338,125.331 193.5,124.5 Z"/></g>
<g><path style="opacity:1" fill="#174e72" d="M 236.5,123.5 C 236.856,129.186 239.856,131.519 245.5,130.5C 246.557,131.206 246.224,131.539 244.5,131.5C 239.83,132.585 236.83,130.918 235.5,126.5C 235.263,125.209 235.596,124.209 236.5,123.5 Z"/></g>
<g><path style="opacity:1" fill="#18a3ee" d="M 235.5,126.5 C 236.83,130.918 239.83,132.585 244.5,131.5C 244.586,132.496 244.252,133.329 243.5,134C 241.618,134.198 239.952,134.698 238.5,135.5C 237.662,135.842 237.328,136.508 237.5,137.5C 236.671,145.323 236.171,153.323 236,161.5C 235.55,164.106 234.05,165.439 231.5,165.5C 229.947,162.065 228.114,158.732 226,155.5C 225.51,154.207 225.343,152.873 225.5,151.5C 225.5,145.5 225.5,139.5 225.5,133.5C 225.025,130.918 225.692,128.918 227.5,127.5C 227.369,128.239 227.536,128.906 228,129.5C 228.333,128.5 228.667,127.5 229,126.5C 230.726,128.015 232.226,129.682 233.5,131.5C 234.17,129.709 234.837,128.042 235.5,126.5 Z"/></g>
<g><path style="opacity:1" fill="#349ed0" d="M 278.5,134.5 C 279.167,135.167 279.833,135.833 280.5,136.5C 274.593,134.534 269.259,135.534 264.5,139.5C 263.571,138.311 263.238,136.978 263.5,135.5C 260.5,135.5 257.5,135.5 254.5,135.5C 254.5,138.833 254.5,142.167 254.5,145.5C 254.5,149.167 254.5,152.833 254.5,156.5C 253.833,158.167 253.167,159.833 252.5,161.5C 253.123,153.285 252.29,145.285 250,137.5C 249.83,147.675 249.33,157.675 248.5,167.5C 248.5,157.167 248.5,146.833 248.5,136.5C 251.285,137.084 252.952,136.084 253.5,133.5C 255.57,133.551 257.403,132.885 259,131.5C 261.427,132.964 263.927,134.297 266.5,135.5C 270.453,134.638 274.453,134.305 278.5,134.5 Z"/></g>
<g><path style="opacity:1" fill="#24acf1" d="M 292.5,131.5 C 296.294,135.311 297.961,139.977 297.5,145.5C 296.5,145.5 295.5,145.5 294.5,145.5C 294.949,143.023 294.283,141.023 292.5,139.5C 292.167,140.5 291.833,141.5 291.5,142.5C 293.815,147.755 295.482,153.088 296.5,158.5C 296.371,160.216 296.038,161.883 295.5,163.5C 293.147,165.86 291.147,168.527 289.5,171.5C 287.833,172.833 286.167,174.167 284.5,175.5C 280.363,175.719 279.029,174.053 280.5,170.5C 282.099,170.768 283.432,170.434 284.5,169.5C 284.833,168.833 285.167,168.167 285.5,167.5C 286.634,159.245 286.801,150.912 286,142.5C 284.64,139.977 282.807,137.977 280.5,136.5C 279.833,135.833 279.167,135.167 278.5,134.5C 279.5,134.5 280.5,134.5 281.5,134.5C 281.5,133.5 281.5,132.5 281.5,131.5C 284.024,130.188 286.691,129.688 289.5,130C 288.572,130.388 287.905,131.055 287.5,132C 288.852,133.964 289.686,136.131 290,138.5C 291.903,136.559 292.736,134.226 292.5,131.5 Z"/></g>
<g><path style="opacity:1" fill="#1a1a1b" d="M 144.5,138.5 C 162.836,138.333 181.17,138.5 199.5,139C 201.013,141.454 200.346,143.121 197.5,144C 179.833,144.667 162.167,144.667 144.5,144C 143.464,142.224 143.464,140.391 144.5,138.5 Z"/></g>
<g><path style="opacity:1" fill="#f2f2ee" d="M 280.5,136.5 C 282.807,137.977 284.64,139.977 286,142.5C 286.801,150.912 286.634,159.245 285.5,167.5C 282.5,167.5 279.5,167.5 276.5,167.5C 276.666,160.825 276.5,154.158 276,147.5C 272.376,143.533 268.876,143.533 265.5,147.5C 265.15,154.395 264.15,161.062 262.5,167.5C 260.393,166.532 258.059,166.198 255.5,166.5C 255.825,159.313 255.491,152.313 254.5,145.5C 254.5,142.167 254.5,138.833 254.5,135.5C 257.5,135.5 260.5,135.5 263.5,135.5C 263.238,136.978 263.571,138.311 264.5,139.5C 269.259,135.534 274.593,134.534 280.5,136.5 Z"/></g>
<g><path style="opacity:1" fill="#262626" d="M 320.5,138.5 C 325.283,138.449 327.45,140.782 327,145.5C 324.048,149.482 321.048,149.482 318,145.5C 317.333,144.167 317.333,142.833 318,141.5C 319.045,140.627 319.878,139.627 320.5,138.5 Z"/></g>
<g><path style="opacity:1" fill="#1e242f" d="M 296.5,129.5 C 298.097,130.737 299.263,132.404 300,134.5C 300.645,137.559 301.478,140.559 302.5,143.5C 303.167,143.167 303.833,142.833 304.5,142.5C 305.647,144.765 305.814,147.098 305,149.5C 304.667,148.167 304.333,146.833 304,145.5C 304.104,150.938 302.437,155.605 299,159.5C 298.51,160.793 298.343,162.127 298.5,163.5C 297.5,163.5 296.5,163.5 295.5,163.5C 296.038,161.883 296.371,160.216 296.5,158.5C 298.069,154.215 298.736,149.715 298.5,145C 298.673,139.621 298.006,134.454 296.5,129.5 Z"/></g>
<g><path style="opacity:1" fill="#191f26" d="M 94.5,130.5 C 99.0226,130.345 102.189,132.345 104,136.5C 105.167,144.667 101.667,148.167 93.5,147C 86.8304,141.148 87.1637,135.648 94.5,130.5 Z"/></g>
<g><path style="opacity:1" fill="#9eb4c4" d="M 94.5,137.5 C 95.8333,137.5 97.1667,137.5 98.5,137.5C 98.5,138.833 98.5,140.167 98.5,141.5C 96.8333,141.5 95.1667,141.5 93.5,141.5C 93.4326,140.041 93.7659,138.708 94.5,137.5 Z"/></g>
<g><path style="opacity:1" fill="#28527f" d="M 225.5,133.5 C 225.5,139.5 225.5,145.5 225.5,151.5C 225.167,151.5 224.833,151.5 224.5,151.5C 223.833,146.5 223.167,141.5 222.5,136.5C 222.563,133.805 223.563,132.805 225.5,133.5 Z"/></g>
<g><path style="opacity:1" fill="#8eb3cd" d="M 238.5,135.5 C 241.713,135.19 244.713,135.523 247.5,136.5C 244.5,136.5 241.5,136.5 238.5,136.5C 238.5,146.5 238.5,156.5 238.5,166.5C 237.506,157.014 237.173,147.348 237.5,137.5C 237.328,136.508 237.662,135.842 238.5,135.5 Z"/></g>
<g><path style="opacity:1" fill="#9fcbdd" d="M 247.5,136.5 C 247.833,136.5 248.167,136.5 248.5,136.5C 248.5,146.833 248.5,157.167 248.5,167.5C 247.833,167.5 247.167,167.5 246.5,167.5C 243.615,167.806 240.948,167.473 238.5,166.5C 241.5,166.5 244.5,166.5 247.5,166.5C 247.5,156.5 247.5,146.5 247.5,136.5 Z"/></g>
<g><path style="opacity:1" fill="#1a3456" d="M 285.5,167.5 C 285.167,168.167 284.833,168.833 284.5,169.5C 281.167,169.5 277.833,169.5 274.5,169.5C 275.546,162.87 275.713,156.203 275,149.5C 274.617,148.944 274.117,148.611 273.5,148.5C 270.729,147.653 268.063,147.32 265.5,147.5C 268.876,143.533 272.376,143.533 276,147.5C 276.5,154.158 276.666,160.825 276.5,167.5C 279.5,167.5 282.5,167.5 285.5,167.5 Z"/></g>
<g><path style="opacity:1" fill="#2a3131" d="M 255.5,100.5 C 278.305,99.3375 294.472,109.337 304,130.5C 306.606,139.433 306.94,148.433 305,157.5C 301.473,165.245 296.973,172.245 291.5,178.5C 291.44,177.957 291.107,177.624 290.5,177.5C 289.833,178.167 289.167,178.833 288.5,179.5C 287.824,178.398 287.158,177.398 286.5,176.5C 288.279,175.33 289.279,173.664 289.5,171.5C 291.147,168.527 293.147,165.86 295.5,163.5C 296.5,163.5 297.5,163.5 298.5,163.5C 298.343,162.127 298.51,160.793 299,159.5C 302.437,155.605 304.104,150.938 304,145.5C 304.333,146.833 304.667,148.167 305,149.5C 305.814,147.098 305.647,144.765 304.5,142.5C 303.833,142.833 303.167,143.167 302.5,143.5C 301.478,140.559 300.645,137.559 300,134.5C 299.263,132.404 298.097,130.737 296.5,129.5C 293.389,119.716 287.056,112.716 277.5,108.5C 277.144,107.13 276.31,106.13 275,105.5C 273.08,105.062 271.246,104.395 269.5,103.5C 269.709,102.914 270.043,102.414 270.5,102C 265.536,101.088 260.536,100.588 255.5,100.5 Z"/></g>
<g><path style="opacity:1" fill="#30b3ea" d="M 286.5,120.5 C 287.458,120.953 288.292,121.619 289,122.5C 289.399,122.272 289.565,121.938 289.5,121.5C 291.833,124.167 294.167,126.833 296.5,129.5C 298.006,134.454 298.673,139.621 298.5,145C 298.736,149.715 298.069,154.215 296.5,158.5C 295.482,153.088 293.815,147.755 291.5,142.5C 291.833,141.5 292.167,140.5 292.5,139.5C 294.283,141.023 294.949,143.023 294.5,145.5C 295.5,145.5 296.5,145.5 297.5,145.5C 297.961,139.977 296.294,135.311 292.5,131.5C 293.028,130.153 293.195,128.819 293,127.5C 290.266,125.603 288.1,123.27 286.5,120.5 Z"/></g>
<g><path style="opacity:1" fill="#f1eee6" d="M 247.5,136.5 C 247.5,146.5 247.5,156.5 247.5,166.5C 244.5,166.5 241.5,166.5 238.5,166.5C 238.5,156.5 238.5,146.5 238.5,136.5C 241.5,136.5 244.5,136.5 247.5,136.5 Z"/></g>
<g><path style="opacity:1" fill="#9ab5c4" d="M 254.5,145.5 C 255.491,152.313 255.825,159.313 255.5,166.5C 258.059,166.198 260.393,166.532 262.5,167.5C 259.833,167.5 257.167,167.5 254.5,167.5C 254.5,163.833 254.5,160.167 254.5,156.5C 254.5,152.833 254.5,149.167 254.5,145.5 Z"/></g>
<g><path style="opacity:1" fill="#27282a" d="M 200.5,156.5 C 183.005,155.668 165.338,155.168 147.5,155C 146.619,154.292 145.953,153.458 145.5,152.5C 164.329,151.338 183.329,151.171 202.5,152C 203.612,154.108 202.946,155.608 200.5,156.5 Z"/></g>
<g><path style="opacity:1" fill="#7a8590" d="M 222.5,136.5 C 223.167,141.5 223.833,146.5 224.5,151.5C 224.904,155.643 225.904,159.643 227.5,163.5C 225.239,160.634 223.739,157.301 223,153.5C 222.501,147.843 222.334,142.176 222.5,136.5 Z"/></g>
<g><path style="opacity:1" fill="#2b2b2c" d="M 145.5,152.5 C 145.953,153.458 146.619,154.292 147.5,155C 165.338,155.168 183.005,155.668 200.5,156.5C 182.338,157.662 164.005,157.829 145.5,157C 142.894,155.35 142.894,153.85 145.5,152.5 Z"/></g>
<g><path style="opacity:1" fill="#242628" d="M 255.5,100.5 C 260.536,100.588 265.536,101.088 270.5,102C 270.043,102.414 269.709,102.914 269.5,103.5C 271.246,104.395 273.08,105.062 275,105.5C 276.31,106.13 277.144,107.13 277.5,108.5C 267.392,105.019 257.059,104.519 246.5,107C 244.569,108.71 243.236,110.21 242.5,111.5C 240.64,112.939 238.973,114.605 237.5,116.5C 232.775,118.892 229.442,122.559 227.5,127.5C 225.692,128.918 225.025,130.918 225.5,133.5C 223.563,132.805 222.563,133.805 222.5,136.5C 222.334,142.176 222.501,147.843 223,153.5C 223.739,157.301 225.239,160.634 227.5,163.5C 230.791,168.127 234.458,172.46 238.5,176.5C 241.51,180.182 245.176,181.848 249.5,181.5C 259.73,183.809 270.063,183.976 280.5,182C 282.474,180.08 284.474,178.247 286.5,176.5C 287.158,177.398 287.824,178.398 288.5,179.5C 289.167,178.833 289.833,178.167 290.5,177.5C 291.107,177.624 291.44,177.957 291.5,178.5C 285.764,185.203 278.431,189.036 269.5,190C 247.303,192.485 230.803,183.985 220,164.5C 209.948,134.103 219.782,112.936 249.5,101C 251.473,100.505 253.473,100.338 255.5,100.5 Z"/></g>
<g><path style="opacity:1" fill="#1171b1" d="M 273.5,148.5 C 274.117,148.611 274.617,148.944 275,149.5C 275.713,156.203 275.546,162.87 274.5,169.5C 277.833,169.5 281.167,169.5 284.5,169.5C 283.432,170.434 282.099,170.768 280.5,170.5C 278.167,170.5 275.833,170.5 273.5,170.5C 273.11,163.227 273.11,155.894 273.5,148.5 Z"/></g>
<g><path style="opacity:1" fill="#1269a8" d="M 237.5,137.5 C 237.173,147.348 237.506,157.014 238.5,166.5C 240.948,167.473 243.615,167.806 246.5,167.5C 243.167,168.833 239.833,170.167 236.5,171.5C 234.844,169.54 233.177,167.54 231.5,165.5C 234.05,165.439 235.55,164.106 236,161.5C 236.171,153.323 236.671,145.323 237.5,137.5 Z"/></g>
<g><path style="opacity:1" fill="#1d1e1e" d="M 204.5,170.5 C 207.518,170.335 210.518,170.502 213.5,171C 216.218,172.415 216.885,174.415 215.5,177C 204.5,177.667 193.5,177.667 182.5,177C 181.397,175.32 181.73,173.82 183.5,172.5C 190.655,171.833 197.655,171.167 204.5,170.5 Z"/></g>
<g><path style="opacity:1" fill="#13a0e5" d="M 252.5,161.5 C 252.5,164.167 252.5,166.833 252.5,169.5C 256.329,170.069 259.663,169.402 262.5,167.5C 264.15,161.062 265.15,154.395 265.5,147.5C 268.063,147.32 270.729,147.653 273.5,148.5C 273.11,155.894 273.11,163.227 273.5,170.5C 275.833,170.5 278.167,170.5 280.5,170.5C 279.029,174.053 280.363,175.719 284.5,175.5C 281.833,176.833 279.167,178.167 276.5,179.5C 268.16,179.666 259.827,179.5 251.5,179C 249.073,177.409 246.407,176.575 243.5,176.5C 240.897,175.256 238.564,173.589 236.5,171.5C 239.833,170.167 243.167,168.833 246.5,167.5C 247.167,167.5 247.833,167.5 248.5,167.5C 249.33,157.675 249.83,147.675 250,137.5C 252.29,145.285 253.123,153.285 252.5,161.5 Z"/></g>
<g><path style="opacity:1" fill="#0b5287" d="M 254.5,156.5 C 254.5,160.167 254.5,163.833 254.5,167.5C 257.167,167.5 259.833,167.5 262.5,167.5C 259.663,169.402 256.329,170.069 252.5,169.5C 252.5,166.833 252.5,164.167 252.5,161.5C 253.167,159.833 253.833,158.167 254.5,156.5 Z"/></g>
<g><path style="opacity:1" fill="#bebfc5" d="M 238.5,176.5 C 242.022,178.426 245.688,180.093 249.5,181.5C 245.176,181.848 241.51,180.182 238.5,176.5 Z"/></g>
<g><path style="opacity:1" fill="#122846" d="M 224.5,151.5 C 224.833,151.5 225.167,151.5 225.5,151.5C 225.343,152.873 225.51,154.207 226,155.5C 228.114,158.732 229.947,162.065 231.5,165.5C 233.177,167.54 234.844,169.54 236.5,171.5C 238.564,173.589 240.897,175.256 243.5,176.5C 253.989,183.09 264.989,184.09 276.5,179.5C 279.167,178.167 281.833,176.833 284.5,175.5C 286.167,174.167 287.833,172.833 289.5,171.5C 289.279,173.664 288.279,175.33 286.5,176.5C 284.474,178.247 282.474,180.08 280.5,182C 270.063,183.976 259.73,183.809 249.5,181.5C 245.688,180.093 242.022,178.426 238.5,176.5C 234.458,172.46 230.791,168.127 227.5,163.5C 225.904,159.643 224.904,155.643 224.5,151.5 Z"/></g>
<g><path style="opacity:1" fill="#0c73b3" d="M 243.5,176.5 C 246.407,176.575 249.073,177.409 251.5,179C 259.827,179.5 268.16,179.666 276.5,179.5C 264.989,184.09 253.989,183.09 243.5,176.5 Z"/></g>
<g><path style="opacity:1" fill="#1e1e1e" d="M 182.5,189.5 C 189.175,189.334 195.842,189.5 202.5,190C 204.527,191.396 204.86,193.062 203.5,195C 196.833,195.667 190.167,195.667 183.5,195C 181.365,193.444 181.032,191.611 182.5,189.5 Z"/></g>
<g><path style="opacity:1" fill="#1e1f1f" d="M 213.5,189.5 C 219.509,189.334 225.509,189.501 231.5,190C 233.155,191.444 233.822,193.278 233.5,195.5C 226.825,195.666 220.158,195.5 213.5,195C 210.982,193.19 210.982,191.357 213.5,189.5 Z"/></g>
<g><path style="opacity:1" fill="#1d2226" d="M 154.5,169.5 C 166.776,170.607 172.276,177.274 171,189.5C 164.577,200.626 156.244,202.293 146,194.5C 142.516,189.453 141.849,184.12 144,178.5C 147.126,174.859 150.626,171.859 154.5,169.5 Z"/></g>
<g><path style="opacity:1" fill="#50a5d4" d="M 162.5,179.5 C 165.219,183.545 164.885,187.545 161.5,191.5C 156.551,193.526 152.551,192.526 149.5,188.5C 150.222,188.082 150.722,187.416 151,186.5C 157.12,188.251 160.954,185.918 162.5,179.5 Z"/></g>
<g><path style="opacity:1" fill="#f2f6f8" d="M 162.5,179.5 C 160.954,185.918 157.12,188.251 151,186.5C 150.722,187.416 150.222,188.082 149.5,188.5C 148.032,180.469 151.365,176.636 159.5,177C 160.942,177.377 161.942,178.21 162.5,179.5 Z"/></g>
<g><path style="opacity:1" fill="#1d2b33" d="M 302.5,192.5 C 300.658,192.277 298.825,191.943 297,191.5C 296.167,191.833 295.333,192.167 294.5,192.5C 295.504,194.677 294.838,195.011 292.5,193.5C 291.513,196.768 291.18,200.102 291.5,203.5C 294.482,204.697 297.482,206.03 300.5,207.5C 293.526,209.407 289.526,206.574 288.5,199C 290.365,190.615 295.032,188.448 302.5,192.5 Z"/></g>
<g><path style="opacity:1" fill="#142f4a" d="M 302.5,192.5 C 303.458,192.953 304.292,193.619 305,194.5C 305.965,198.782 305.298,202.782 303,206.5C 302.329,207.252 301.496,207.586 300.5,207.5C 297.482,206.03 294.482,204.697 291.5,203.5C 291.18,200.102 291.513,196.768 292.5,193.5C 294.838,195.011 295.504,194.677 294.5,192.5C 295.333,192.167 296.167,191.833 297,191.5C 298.825,191.943 300.658,192.277 302.5,192.5 Z"/></g>
<g><path style="opacity:1" fill="#44b7e4" d="M 294.5,195.5 C 299.989,195.325 302.322,197.992 301.5,203.5C 295.1,204.111 292.767,201.444 294.5,195.5 Z"/></g>
<g><path style="opacity:1" fill="#222526" d="M 141.5,30.5 C 143.924,30.1924 146.257,30.5258 148.5,31.5C 147.359,32.4255 147.359,33.2588 148.5,34C 169.5,34.3333 190.5,34.6667 211.5,35C 210.584,35.2784 209.918,35.7784 209.5,36.5C 187.164,36.3334 164.831,36.5 142.5,37C 137.09,38.7425 133.256,42.2425 131,47.5C 130.333,99.1667 130.333,150.833 131,202.5C 132.573,206.827 135.407,209.993 139.5,212C 177.167,212.667 214.833,212.667 252.5,212C 257.856,209.491 260.523,205.324 260.5,199.5C 262.92,199.292 265.253,199.626 267.5,200.5C 268.631,202.074 268.798,203.741 268,205.5C 264.833,211.333 260.333,215.833 254.5,219C 216.5,219.667 178.5,219.667 140.5,219C 131.215,216.715 125.715,210.882 124,201.5C 123.333,149.833 123.333,98.1667 124,46.5C 126.894,37.766 132.727,32.4327 141.5,30.5 Z"/></g>
</svg>
